<mxfile host="app.diagrams.net" modified="2023-10-27T01:34:15.432Z" agent="Mozilla/5.0 (Windows NT 10.0; Win64; x64) AppleWebKit/537.36 (KHTML, like Gecko) Chrome/118.0.0.0 Safari/537.36" etag="S73o5vdYthy_elNfaZZh" version="22.0.8" type="device">
  <diagram id="uQc1uqGf2HWPewSTmu1-" name="Page-4">
    <mxGraphModel dx="428" dy="602" grid="1" gridSize="10" guides="1" tooltips="1" connect="1" arrows="1" fold="1" page="0" pageScale="1" pageWidth="850" pageHeight="1100" math="0" shadow="0">
      <root>
        <mxCell id="0" />
        <mxCell id="1" parent="0" />
        <mxCell id="bJGoiBvRY1GCGcLGC41Q-31" value="" style="whiteSpace=wrap;html=1;aspect=fixed;" vertex="1" parent="1">
          <mxGeometry x="20" y="330" width="160" height="160" as="geometry" />
        </mxCell>
        <mxCell id="bJGoiBvRY1GCGcLGC41Q-1" value="&lt;font style=&quot;font-size: 18px;&quot;&gt;&lt;b&gt;DATA&lt;/b&gt;&lt;/font&gt;" style="text;html=1;strokeColor=none;fillColor=none;align=center;verticalAlign=middle;whiteSpace=wrap;rounded=0;" vertex="1" parent="1">
          <mxGeometry x="20" y="280" width="160" height="40" as="geometry" />
        </mxCell>
        <mxCell id="bJGoiBvRY1GCGcLGC41Q-4" value="&lt;font style=&quot;font-size: 18px;&quot;&gt;&lt;b&gt;ALGORITHM&lt;/b&gt;&lt;/font&gt;" style="text;html=1;strokeColor=none;fillColor=none;align=center;verticalAlign=middle;whiteSpace=wrap;rounded=0;" vertex="1" parent="1">
          <mxGeometry x="240" y="280" width="160" height="40" as="geometry" />
        </mxCell>
        <mxCell id="bJGoiBvRY1GCGcLGC41Q-5" value="&lt;font style=&quot;font-size: 18px;&quot;&gt;&lt;b&gt;MODEL&lt;/b&gt;&lt;/font&gt;" style="text;html=1;strokeColor=none;fillColor=none;align=center;verticalAlign=middle;whiteSpace=wrap;rounded=0;" vertex="1" parent="1">
          <mxGeometry x="460" y="280" width="160" height="40" as="geometry" />
        </mxCell>
        <mxCell id="bJGoiBvRY1GCGcLGC41Q-8" value="&lt;b&gt;&lt;font color=&quot;#ff3333&quot;&gt;R&lt;/font&gt;&lt;/b&gt;" style="text;html=1;strokeColor=none;fillColor=none;align=center;verticalAlign=middle;whiteSpace=wrap;rounded=0;" vertex="1" parent="1">
          <mxGeometry x="90" y="380" width="60" height="30" as="geometry" />
        </mxCell>
        <mxCell id="bJGoiBvRY1GCGcLGC41Q-10" value="&lt;span&gt;&lt;font color=&quot;#ff3333&quot;&gt;R&lt;/font&gt;&lt;/span&gt;" style="text;html=1;strokeColor=none;fillColor=none;align=center;verticalAlign=middle;whiteSpace=wrap;rounded=0;fontStyle=1" vertex="1" parent="1">
          <mxGeometry x="100" y="390" width="60" height="30" as="geometry" />
        </mxCell>
        <mxCell id="bJGoiBvRY1GCGcLGC41Q-11" value="&lt;span&gt;&lt;font color=&quot;#ff3333&quot;&gt;R&lt;/font&gt;&lt;/span&gt;" style="text;html=1;strokeColor=none;fillColor=none;align=center;verticalAlign=middle;whiteSpace=wrap;rounded=0;fontStyle=1" vertex="1" parent="1">
          <mxGeometry x="110" y="400" width="60" height="30" as="geometry" />
        </mxCell>
        <mxCell id="bJGoiBvRY1GCGcLGC41Q-12" value="&lt;span&gt;&lt;font color=&quot;#ff3333&quot;&gt;R&lt;/font&gt;&lt;/span&gt;" style="text;html=1;strokeColor=none;fillColor=none;align=center;verticalAlign=middle;whiteSpace=wrap;rounded=0;fontStyle=1" vertex="1" parent="1">
          <mxGeometry x="120" y="394" width="60" height="30" as="geometry" />
        </mxCell>
        <mxCell id="bJGoiBvRY1GCGcLGC41Q-13" value="&lt;span&gt;&lt;font color=&quot;#ff3333&quot;&gt;R&lt;/font&gt;&lt;/span&gt;" style="text;html=1;strokeColor=none;fillColor=none;align=center;verticalAlign=middle;whiteSpace=wrap;rounded=0;fontStyle=1" vertex="1" parent="1">
          <mxGeometry x="130" y="390" width="60" height="30" as="geometry" />
        </mxCell>
        <mxCell id="bJGoiBvRY1GCGcLGC41Q-14" value="&lt;span&gt;&lt;font color=&quot;#ff3333&quot;&gt;R&lt;/font&gt;&lt;/span&gt;" style="text;html=1;strokeColor=none;fillColor=none;align=center;verticalAlign=middle;whiteSpace=wrap;rounded=0;fontStyle=1" vertex="1" parent="1">
          <mxGeometry x="110" y="390" width="60" height="30" as="geometry" />
        </mxCell>
        <mxCell id="bJGoiBvRY1GCGcLGC41Q-15" value="&lt;span&gt;&lt;font color=&quot;#ff3333&quot;&gt;R&lt;/font&gt;&lt;/span&gt;" style="text;html=1;strokeColor=none;fillColor=none;align=center;verticalAlign=middle;whiteSpace=wrap;rounded=0;fontStyle=1" vertex="1" parent="1">
          <mxGeometry x="110" y="370" width="60" height="30" as="geometry" />
        </mxCell>
        <mxCell id="bJGoiBvRY1GCGcLGC41Q-18" value="&lt;span&gt;&lt;font color=&quot;#ff3333&quot;&gt;R&lt;/font&gt;&lt;/span&gt;" style="text;html=1;strokeColor=none;fillColor=none;align=center;verticalAlign=middle;whiteSpace=wrap;rounded=0;fontStyle=1" vertex="1" parent="1">
          <mxGeometry x="120" y="380" width="60" height="30" as="geometry" />
        </mxCell>
        <mxCell id="bJGoiBvRY1GCGcLGC41Q-19" value="&lt;span&gt;&lt;font color=&quot;#ff3333&quot;&gt;R&lt;/font&gt;&lt;/span&gt;" style="text;html=1;strokeColor=none;fillColor=none;align=center;verticalAlign=middle;whiteSpace=wrap;rounded=0;fontStyle=1" vertex="1" parent="1">
          <mxGeometry x="112" y="381" width="60" height="30" as="geometry" />
        </mxCell>
        <mxCell id="bJGoiBvRY1GCGcLGC41Q-21" value="&lt;span&gt;&lt;font color=&quot;#ff3333&quot;&gt;R&lt;/font&gt;&lt;/span&gt;" style="text;html=1;strokeColor=none;fillColor=none;align=center;verticalAlign=middle;whiteSpace=wrap;rounded=0;fontStyle=1" vertex="1" parent="1">
          <mxGeometry x="95" y="377" width="60" height="30" as="geometry" />
        </mxCell>
        <mxCell id="bJGoiBvRY1GCGcLGC41Q-22" value="&lt;span&gt;&lt;font color=&quot;#ff3333&quot;&gt;R&lt;/font&gt;&lt;/span&gt;" style="text;html=1;strokeColor=none;fillColor=none;align=center;verticalAlign=middle;whiteSpace=wrap;rounded=0;fontStyle=1" vertex="1" parent="1">
          <mxGeometry x="105" y="373" width="60" height="30" as="geometry" />
        </mxCell>
        <mxCell id="bJGoiBvRY1GCGcLGC41Q-23" value="&lt;span&gt;&lt;font color=&quot;#ff3333&quot;&gt;R&lt;/font&gt;&lt;/span&gt;" style="text;html=1;strokeColor=none;fillColor=none;align=center;verticalAlign=middle;whiteSpace=wrap;rounded=0;fontStyle=1" vertex="1" parent="1">
          <mxGeometry x="95" y="363" width="60" height="30" as="geometry" />
        </mxCell>
        <mxCell id="bJGoiBvRY1GCGcLGC41Q-24" value="&lt;span&gt;&lt;font color=&quot;#ff3333&quot;&gt;R&lt;/font&gt;&lt;/span&gt;" style="text;html=1;strokeColor=none;fillColor=none;align=center;verticalAlign=middle;whiteSpace=wrap;rounded=0;fontStyle=1" vertex="1" parent="1">
          <mxGeometry x="115" y="373" width="60" height="30" as="geometry" />
        </mxCell>
        <mxCell id="bJGoiBvRY1GCGcLGC41Q-25" value="&lt;span&gt;&lt;font color=&quot;#ff3333&quot;&gt;R&lt;/font&gt;&lt;/span&gt;" style="text;html=1;strokeColor=none;fillColor=none;align=center;verticalAlign=middle;whiteSpace=wrap;rounded=0;fontStyle=1" vertex="1" parent="1">
          <mxGeometry x="125" y="369" width="60" height="30" as="geometry" />
        </mxCell>
        <mxCell id="bJGoiBvRY1GCGcLGC41Q-26" value="&lt;span&gt;&lt;font color=&quot;#ff3333&quot;&gt;R&lt;/font&gt;&lt;/span&gt;" style="text;html=1;strokeColor=none;fillColor=none;align=center;verticalAlign=middle;whiteSpace=wrap;rounded=0;fontStyle=1" vertex="1" parent="1">
          <mxGeometry x="115" y="359" width="60" height="30" as="geometry" />
        </mxCell>
        <mxCell id="bJGoiBvRY1GCGcLGC41Q-27" value="&lt;span&gt;&lt;font color=&quot;#ff3333&quot;&gt;R&lt;/font&gt;&lt;/span&gt;" style="text;html=1;strokeColor=none;fillColor=none;align=center;verticalAlign=middle;whiteSpace=wrap;rounded=0;fontStyle=1" vertex="1" parent="1">
          <mxGeometry x="92" y="350" width="60" height="30" as="geometry" />
        </mxCell>
        <mxCell id="bJGoiBvRY1GCGcLGC41Q-28" value="&lt;span&gt;&lt;font color=&quot;#ff3333&quot;&gt;R&lt;/font&gt;&lt;/span&gt;" style="text;html=1;strokeColor=none;fillColor=none;align=center;verticalAlign=middle;whiteSpace=wrap;rounded=0;fontStyle=1" vertex="1" parent="1">
          <mxGeometry x="112" y="332" width="60" height="30" as="geometry" />
        </mxCell>
        <mxCell id="bJGoiBvRY1GCGcLGC41Q-33" value="&lt;span&gt;&lt;font color=&quot;#ff3333&quot;&gt;R&lt;/font&gt;&lt;/span&gt;" style="text;html=1;strokeColor=none;fillColor=none;align=center;verticalAlign=middle;whiteSpace=wrap;rounded=0;fontStyle=1" vertex="1" parent="1">
          <mxGeometry x="30" y="332" width="60" height="30" as="geometry" />
        </mxCell>
        <mxCell id="bJGoiBvRY1GCGcLGC41Q-34" value="&lt;span&gt;&lt;font color=&quot;#ff3333&quot;&gt;R&lt;/font&gt;&lt;/span&gt;" style="text;html=1;strokeColor=none;fillColor=none;align=center;verticalAlign=middle;whiteSpace=wrap;rounded=0;fontStyle=1" vertex="1" parent="1">
          <mxGeometry x="125" y="420" width="60" height="30" as="geometry" />
        </mxCell>
        <mxCell id="bJGoiBvRY1GCGcLGC41Q-35" value="&lt;span&gt;&lt;font&gt;B&lt;/font&gt;&lt;/span&gt;" style="text;html=1;strokeColor=none;fillColor=none;align=center;verticalAlign=middle;whiteSpace=wrap;rounded=0;fontStyle=1;fontColor=#0000FF;" vertex="1" parent="1">
          <mxGeometry x="52" y="450" width="60" height="30" as="geometry" />
        </mxCell>
        <mxCell id="bJGoiBvRY1GCGcLGC41Q-36" value="&lt;span&gt;&lt;font&gt;B&lt;/font&gt;&lt;/span&gt;" style="text;html=1;strokeColor=none;fillColor=none;align=center;verticalAlign=middle;whiteSpace=wrap;rounded=0;fontStyle=1;fontColor=#0000FF;" vertex="1" parent="1">
          <mxGeometry x="54" y="440" width="60" height="30" as="geometry" />
        </mxCell>
        <mxCell id="bJGoiBvRY1GCGcLGC41Q-37" value="&lt;span&gt;&lt;font&gt;B&lt;/font&gt;&lt;/span&gt;" style="text;html=1;strokeColor=none;fillColor=none;align=center;verticalAlign=middle;whiteSpace=wrap;rounded=0;fontStyle=1;fontColor=#0000FF;" vertex="1" parent="1">
          <mxGeometry x="72" y="451" width="60" height="29" as="geometry" />
        </mxCell>
        <mxCell id="bJGoiBvRY1GCGcLGC41Q-38" value="&lt;span&gt;&lt;font&gt;B&lt;/font&gt;&lt;/span&gt;" style="text;html=1;strokeColor=none;fillColor=none;align=center;verticalAlign=middle;whiteSpace=wrap;rounded=0;fontStyle=1;fontColor=#0000FF;" vertex="1" parent="1">
          <mxGeometry x="39" y="410" width="60" height="30" as="geometry" />
        </mxCell>
        <mxCell id="bJGoiBvRY1GCGcLGC41Q-39" value="&lt;span&gt;&lt;font&gt;B&lt;/font&gt;&lt;/span&gt;" style="text;html=1;strokeColor=none;fillColor=none;align=center;verticalAlign=middle;whiteSpace=wrap;rounded=0;fontStyle=1;fontColor=#0000FF;" vertex="1" parent="1">
          <mxGeometry x="39" y="430" width="60" height="30" as="geometry" />
        </mxCell>
        <mxCell id="bJGoiBvRY1GCGcLGC41Q-40" value="&lt;span&gt;&lt;font&gt;B&lt;/font&gt;&lt;/span&gt;" style="text;html=1;strokeColor=none;fillColor=none;align=center;verticalAlign=middle;whiteSpace=wrap;rounded=0;fontStyle=1;fontColor=#0000FF;" vertex="1" parent="1">
          <mxGeometry x="68" y="421" width="60" height="30" as="geometry" />
        </mxCell>
        <mxCell id="bJGoiBvRY1GCGcLGC41Q-41" value="&lt;span&gt;&lt;font&gt;B&lt;/font&gt;&lt;/span&gt;" style="text;html=1;strokeColor=none;fillColor=none;align=center;verticalAlign=middle;whiteSpace=wrap;rounded=0;fontStyle=1;fontColor=#0000FF;" vertex="1" parent="1">
          <mxGeometry x="11" y="465" width="60" height="30" as="geometry" />
        </mxCell>
        <mxCell id="bJGoiBvRY1GCGcLGC41Q-42" value="&lt;span&gt;&lt;font&gt;B&lt;/font&gt;&lt;/span&gt;" style="text;html=1;strokeColor=none;fillColor=none;align=center;verticalAlign=middle;whiteSpace=wrap;rounded=0;fontStyle=1;fontColor=#0000FF;" vertex="1" parent="1">
          <mxGeometry x="30" y="450" width="60" height="30" as="geometry" />
        </mxCell>
        <mxCell id="bJGoiBvRY1GCGcLGC41Q-43" value="&lt;span&gt;&lt;font&gt;B&lt;/font&gt;&lt;/span&gt;" style="text;html=1;strokeColor=none;fillColor=none;align=center;verticalAlign=middle;whiteSpace=wrap;rounded=0;fontStyle=1;fontColor=#0000FF;" vertex="1" parent="1">
          <mxGeometry x="51" y="465" width="60" height="30" as="geometry" />
        </mxCell>
        <mxCell id="bJGoiBvRY1GCGcLGC41Q-44" value="&lt;span&gt;&lt;font&gt;B&lt;/font&gt;&lt;/span&gt;" style="text;html=1;strokeColor=none;fillColor=none;align=center;verticalAlign=middle;whiteSpace=wrap;rounded=0;fontStyle=1;fontColor=#0000FF;" vertex="1" parent="1">
          <mxGeometry x="41" y="423" width="60" height="30" as="geometry" />
        </mxCell>
        <mxCell id="bJGoiBvRY1GCGcLGC41Q-45" value="&lt;span&gt;&lt;font&gt;B&lt;/font&gt;&lt;/span&gt;" style="text;html=1;strokeColor=none;fillColor=none;align=center;verticalAlign=middle;whiteSpace=wrap;rounded=0;fontStyle=1;fontColor=#0000FF;" vertex="1" parent="1">
          <mxGeometry x="63" y="444" width="60" height="30" as="geometry" />
        </mxCell>
        <mxCell id="bJGoiBvRY1GCGcLGC41Q-46" value="&lt;span&gt;&lt;font&gt;B&lt;/font&gt;&lt;/span&gt;" style="text;html=1;strokeColor=none;fillColor=none;align=center;verticalAlign=middle;whiteSpace=wrap;rounded=0;fontStyle=1;fontColor=#0000FF;" vertex="1" parent="1">
          <mxGeometry x="43" y="454" width="60" height="30" as="geometry" />
        </mxCell>
        <mxCell id="bJGoiBvRY1GCGcLGC41Q-47" value="&lt;span&gt;&lt;font&gt;B&lt;/font&gt;&lt;/span&gt;" style="text;html=1;strokeColor=none;fillColor=none;align=center;verticalAlign=middle;whiteSpace=wrap;rounded=0;fontStyle=1;fontColor=#0000FF;" vertex="1" parent="1">
          <mxGeometry x="43" y="444" width="60" height="30" as="geometry" />
        </mxCell>
        <mxCell id="bJGoiBvRY1GCGcLGC41Q-48" value="&lt;span&gt;&lt;font&gt;B&lt;/font&gt;&lt;/span&gt;" style="text;html=1;strokeColor=none;fillColor=none;align=center;verticalAlign=middle;whiteSpace=wrap;rounded=0;fontStyle=1;fontColor=#0000FF;" vertex="1" parent="1">
          <mxGeometry x="60" y="455" width="60" height="30" as="geometry" />
        </mxCell>
        <mxCell id="bJGoiBvRY1GCGcLGC41Q-49" value="&lt;span&gt;&lt;font&gt;B&lt;/font&gt;&lt;/span&gt;" style="text;html=1;strokeColor=none;fillColor=none;align=center;verticalAlign=middle;whiteSpace=wrap;rounded=0;fontStyle=1;fontColor=#0000FF;" vertex="1" parent="1">
          <mxGeometry x="43" y="403" width="60" height="30" as="geometry" />
        </mxCell>
        <mxCell id="bJGoiBvRY1GCGcLGC41Q-50" value="&lt;span&gt;&lt;font&gt;B&lt;/font&gt;&lt;/span&gt;" style="text;html=1;strokeColor=none;fillColor=none;align=center;verticalAlign=middle;whiteSpace=wrap;rounded=0;fontStyle=1;fontColor=#0000FF;" vertex="1" parent="1">
          <mxGeometry x="61" y="414" width="60" height="29" as="geometry" />
        </mxCell>
        <mxCell id="bJGoiBvRY1GCGcLGC41Q-51" value="&lt;span&gt;&lt;font&gt;B&lt;/font&gt;&lt;/span&gt;" style="text;html=1;strokeColor=none;fillColor=none;align=center;verticalAlign=middle;whiteSpace=wrap;rounded=0;fontStyle=1;fontColor=#0000FF;" vertex="1" parent="1">
          <mxGeometry x="52" y="407" width="60" height="30" as="geometry" />
        </mxCell>
        <mxCell id="bJGoiBvRY1GCGcLGC41Q-52" value="&lt;span&gt;&lt;font&gt;B&lt;/font&gt;&lt;/span&gt;" style="text;html=1;strokeColor=none;fillColor=none;align=center;verticalAlign=middle;whiteSpace=wrap;rounded=0;fontStyle=1;fontColor=#0000FF;" vertex="1" parent="1">
          <mxGeometry x="31" y="407" width="60" height="30" as="geometry" />
        </mxCell>
        <mxCell id="bJGoiBvRY1GCGcLGC41Q-53" value="&lt;span&gt;&lt;font&gt;B&lt;/font&gt;&lt;/span&gt;" style="text;html=1;strokeColor=none;fillColor=none;align=center;verticalAlign=middle;whiteSpace=wrap;rounded=0;fontStyle=1;fontColor=#0000FF;" vertex="1" parent="1">
          <mxGeometry x="30" y="437" width="60" height="30" as="geometry" />
        </mxCell>
        <mxCell id="bJGoiBvRY1GCGcLGC41Q-54" value="&lt;span&gt;&lt;font&gt;B&lt;/font&gt;&lt;/span&gt;" style="text;html=1;strokeColor=none;fillColor=none;align=center;verticalAlign=middle;whiteSpace=wrap;rounded=0;fontStyle=1;fontColor=#0000FF;" vertex="1" parent="1">
          <mxGeometry x="82" y="421" width="60" height="30" as="geometry" />
        </mxCell>
        <mxCell id="bJGoiBvRY1GCGcLGC41Q-55" value="&lt;span&gt;&lt;font&gt;B&lt;/font&gt;&lt;/span&gt;" style="text;html=1;strokeColor=none;fillColor=none;align=center;verticalAlign=middle;whiteSpace=wrap;rounded=0;fontStyle=1;fontColor=#0000FF;" vertex="1" parent="1">
          <mxGeometry x="95" y="441" width="60" height="29" as="geometry" />
        </mxCell>
        <mxCell id="bJGoiBvRY1GCGcLGC41Q-57" value="&lt;span&gt;&lt;font&gt;B&lt;/font&gt;&lt;/span&gt;" style="text;html=1;strokeColor=none;fillColor=none;align=center;verticalAlign=middle;whiteSpace=wrap;rounded=0;fontStyle=1;fontColor=#0000FF;" vertex="1" parent="1">
          <mxGeometry x="36" y="384" width="60" height="30" as="geometry" />
        </mxCell>
        <mxCell id="bJGoiBvRY1GCGcLGC41Q-59" value="&lt;span&gt;&lt;font&gt;B&lt;/font&gt;&lt;/span&gt;" style="text;html=1;strokeColor=none;fillColor=none;align=center;verticalAlign=middle;whiteSpace=wrap;rounded=0;fontStyle=1;fontColor=#0000FF;" vertex="1" parent="1">
          <mxGeometry x="72" y="440" width="60" height="30" as="geometry" />
        </mxCell>
        <mxCell id="bJGoiBvRY1GCGcLGC41Q-60" value="&lt;span&gt;&lt;font&gt;B&lt;/font&gt;&lt;/span&gt;" style="text;html=1;strokeColor=none;fillColor=none;align=center;verticalAlign=middle;whiteSpace=wrap;rounded=0;fontStyle=1;fontColor=#0000FF;" vertex="1" parent="1">
          <mxGeometry x="45" y="388" width="60" height="30" as="geometry" />
        </mxCell>
        <mxCell id="bJGoiBvRY1GCGcLGC41Q-62" value="&lt;span&gt;&lt;font&gt;B&lt;/font&gt;&lt;/span&gt;" style="text;html=1;strokeColor=none;fillColor=none;align=center;verticalAlign=middle;whiteSpace=wrap;rounded=0;fontStyle=1;fontColor=#0000FF;" vertex="1" parent="1">
          <mxGeometry y="435" width="60" height="30" as="geometry" />
        </mxCell>
        <mxCell id="bJGoiBvRY1GCGcLGC41Q-63" value="&lt;span&gt;&lt;font color=&quot;#ff3333&quot;&gt;R&lt;/font&gt;&lt;/span&gt;" style="text;html=1;strokeColor=none;fillColor=none;align=center;verticalAlign=middle;whiteSpace=wrap;rounded=0;fontStyle=1" vertex="1" parent="1">
          <mxGeometry x="105" y="360" width="60" height="32" as="geometry" />
        </mxCell>
        <mxCell id="bJGoiBvRY1GCGcLGC41Q-64" value="&lt;span&gt;&lt;font color=&quot;#ff3333&quot;&gt;R&lt;/font&gt;&lt;/span&gt;" style="text;html=1;strokeColor=none;fillColor=none;align=center;verticalAlign=middle;whiteSpace=wrap;rounded=0;fontStyle=1" vertex="1" parent="1">
          <mxGeometry x="91" y="392" width="38" height="33" as="geometry" />
        </mxCell>
        <mxCell id="bJGoiBvRY1GCGcLGC41Q-65" value="" style="whiteSpace=wrap;html=1;aspect=fixed;" vertex="1" parent="1">
          <mxGeometry x="240" y="330" width="160" height="160" as="geometry" />
        </mxCell>
        <mxCell id="bJGoiBvRY1GCGcLGC41Q-66" value="&lt;b&gt;&lt;font color=&quot;#ff3333&quot;&gt;R&lt;/font&gt;&lt;/b&gt;" style="text;html=1;strokeColor=none;fillColor=none;align=center;verticalAlign=middle;whiteSpace=wrap;rounded=0;" vertex="1" parent="1">
          <mxGeometry x="310" y="380" width="60" height="30" as="geometry" />
        </mxCell>
        <mxCell id="bJGoiBvRY1GCGcLGC41Q-67" value="&lt;span&gt;&lt;font color=&quot;#ff3333&quot;&gt;R&lt;/font&gt;&lt;/span&gt;" style="text;html=1;strokeColor=none;fillColor=none;align=center;verticalAlign=middle;whiteSpace=wrap;rounded=0;fontStyle=1" vertex="1" parent="1">
          <mxGeometry x="320" y="390" width="60" height="30" as="geometry" />
        </mxCell>
        <mxCell id="bJGoiBvRY1GCGcLGC41Q-68" value="&lt;span&gt;&lt;font color=&quot;#ff3333&quot;&gt;R&lt;/font&gt;&lt;/span&gt;" style="text;html=1;strokeColor=none;fillColor=none;align=center;verticalAlign=middle;whiteSpace=wrap;rounded=0;fontStyle=1" vertex="1" parent="1">
          <mxGeometry x="330" y="400" width="60" height="30" as="geometry" />
        </mxCell>
        <mxCell id="bJGoiBvRY1GCGcLGC41Q-69" value="&lt;span&gt;&lt;font color=&quot;#ff3333&quot;&gt;R&lt;/font&gt;&lt;/span&gt;" style="text;html=1;strokeColor=none;fillColor=none;align=center;verticalAlign=middle;whiteSpace=wrap;rounded=0;fontStyle=1" vertex="1" parent="1">
          <mxGeometry x="340" y="394" width="60" height="30" as="geometry" />
        </mxCell>
        <mxCell id="bJGoiBvRY1GCGcLGC41Q-70" value="&lt;span&gt;&lt;font color=&quot;#ff3333&quot;&gt;R&lt;/font&gt;&lt;/span&gt;" style="text;html=1;strokeColor=none;fillColor=none;align=center;verticalAlign=middle;whiteSpace=wrap;rounded=0;fontStyle=1" vertex="1" parent="1">
          <mxGeometry x="350" y="390" width="60" height="30" as="geometry" />
        </mxCell>
        <mxCell id="bJGoiBvRY1GCGcLGC41Q-71" value="&lt;span&gt;&lt;font color=&quot;#ff3333&quot;&gt;R&lt;/font&gt;&lt;/span&gt;" style="text;html=1;strokeColor=none;fillColor=none;align=center;verticalAlign=middle;whiteSpace=wrap;rounded=0;fontStyle=1" vertex="1" parent="1">
          <mxGeometry x="330" y="390" width="60" height="30" as="geometry" />
        </mxCell>
        <mxCell id="bJGoiBvRY1GCGcLGC41Q-72" value="&lt;span&gt;&lt;font color=&quot;#ff3333&quot;&gt;R&lt;/font&gt;&lt;/span&gt;" style="text;html=1;strokeColor=none;fillColor=none;align=center;verticalAlign=middle;whiteSpace=wrap;rounded=0;fontStyle=1" vertex="1" parent="1">
          <mxGeometry x="330" y="370" width="60" height="30" as="geometry" />
        </mxCell>
        <mxCell id="bJGoiBvRY1GCGcLGC41Q-73" value="&lt;span&gt;&lt;font color=&quot;#ff3333&quot;&gt;R&lt;/font&gt;&lt;/span&gt;" style="text;html=1;strokeColor=none;fillColor=none;align=center;verticalAlign=middle;whiteSpace=wrap;rounded=0;fontStyle=1" vertex="1" parent="1">
          <mxGeometry x="340" y="380" width="60" height="30" as="geometry" />
        </mxCell>
        <mxCell id="bJGoiBvRY1GCGcLGC41Q-74" value="&lt;span&gt;&lt;font color=&quot;#ff3333&quot;&gt;R&lt;/font&gt;&lt;/span&gt;" style="text;html=1;strokeColor=none;fillColor=none;align=center;verticalAlign=middle;whiteSpace=wrap;rounded=0;fontStyle=1" vertex="1" parent="1">
          <mxGeometry x="332" y="381" width="60" height="30" as="geometry" />
        </mxCell>
        <mxCell id="bJGoiBvRY1GCGcLGC41Q-75" value="&lt;span&gt;&lt;font color=&quot;#ff3333&quot;&gt;R&lt;/font&gt;&lt;/span&gt;" style="text;html=1;strokeColor=none;fillColor=none;align=center;verticalAlign=middle;whiteSpace=wrap;rounded=0;fontStyle=1" vertex="1" parent="1">
          <mxGeometry x="315" y="377" width="60" height="30" as="geometry" />
        </mxCell>
        <mxCell id="bJGoiBvRY1GCGcLGC41Q-76" value="&lt;span&gt;&lt;font color=&quot;#ff3333&quot;&gt;R&lt;/font&gt;&lt;/span&gt;" style="text;html=1;strokeColor=none;fillColor=none;align=center;verticalAlign=middle;whiteSpace=wrap;rounded=0;fontStyle=1" vertex="1" parent="1">
          <mxGeometry x="325" y="373" width="60" height="30" as="geometry" />
        </mxCell>
        <mxCell id="bJGoiBvRY1GCGcLGC41Q-77" value="&lt;span&gt;&lt;font color=&quot;#ff3333&quot;&gt;R&lt;/font&gt;&lt;/span&gt;" style="text;html=1;strokeColor=none;fillColor=none;align=center;verticalAlign=middle;whiteSpace=wrap;rounded=0;fontStyle=1" vertex="1" parent="1">
          <mxGeometry x="315" y="363" width="60" height="30" as="geometry" />
        </mxCell>
        <mxCell id="bJGoiBvRY1GCGcLGC41Q-78" value="&lt;span&gt;&lt;font color=&quot;#ff3333&quot;&gt;R&lt;/font&gt;&lt;/span&gt;" style="text;html=1;strokeColor=none;fillColor=none;align=center;verticalAlign=middle;whiteSpace=wrap;rounded=0;fontStyle=1" vertex="1" parent="1">
          <mxGeometry x="335" y="373" width="60" height="30" as="geometry" />
        </mxCell>
        <mxCell id="bJGoiBvRY1GCGcLGC41Q-79" value="&lt;span&gt;&lt;font color=&quot;#ff3333&quot;&gt;R&lt;/font&gt;&lt;/span&gt;" style="text;html=1;strokeColor=none;fillColor=none;align=center;verticalAlign=middle;whiteSpace=wrap;rounded=0;fontStyle=1" vertex="1" parent="1">
          <mxGeometry x="345" y="369" width="60" height="30" as="geometry" />
        </mxCell>
        <mxCell id="bJGoiBvRY1GCGcLGC41Q-80" value="&lt;span&gt;&lt;font color=&quot;#ff3333&quot;&gt;R&lt;/font&gt;&lt;/span&gt;" style="text;html=1;strokeColor=none;fillColor=none;align=center;verticalAlign=middle;whiteSpace=wrap;rounded=0;fontStyle=1" vertex="1" parent="1">
          <mxGeometry x="335" y="359" width="60" height="30" as="geometry" />
        </mxCell>
        <mxCell id="bJGoiBvRY1GCGcLGC41Q-81" value="&lt;span&gt;&lt;font color=&quot;#ff3333&quot;&gt;R&lt;/font&gt;&lt;/span&gt;" style="text;html=1;strokeColor=none;fillColor=none;align=center;verticalAlign=middle;whiteSpace=wrap;rounded=0;fontStyle=1" vertex="1" parent="1">
          <mxGeometry x="312" y="350" width="60" height="30" as="geometry" />
        </mxCell>
        <mxCell id="bJGoiBvRY1GCGcLGC41Q-82" value="&lt;span&gt;&lt;font color=&quot;#ff3333&quot;&gt;R&lt;/font&gt;&lt;/span&gt;" style="text;html=1;strokeColor=none;fillColor=none;align=center;verticalAlign=middle;whiteSpace=wrap;rounded=0;fontStyle=1" vertex="1" parent="1">
          <mxGeometry x="332" y="332" width="60" height="30" as="geometry" />
        </mxCell>
        <mxCell id="bJGoiBvRY1GCGcLGC41Q-83" value="&lt;span&gt;&lt;font color=&quot;#ff3333&quot;&gt;R&lt;/font&gt;&lt;/span&gt;" style="text;html=1;strokeColor=none;fillColor=none;align=center;verticalAlign=middle;whiteSpace=wrap;rounded=0;fontStyle=1" vertex="1" parent="1">
          <mxGeometry x="250" y="332" width="60" height="30" as="geometry" />
        </mxCell>
        <mxCell id="bJGoiBvRY1GCGcLGC41Q-84" value="&lt;span&gt;&lt;font color=&quot;#ff3333&quot;&gt;R&lt;/font&gt;&lt;/span&gt;" style="text;html=1;strokeColor=none;fillColor=none;align=center;verticalAlign=middle;whiteSpace=wrap;rounded=0;fontStyle=1" vertex="1" parent="1">
          <mxGeometry x="345" y="420" width="60" height="30" as="geometry" />
        </mxCell>
        <mxCell id="bJGoiBvRY1GCGcLGC41Q-85" value="&lt;span&gt;&lt;font&gt;B&lt;/font&gt;&lt;/span&gt;" style="text;html=1;strokeColor=none;fillColor=none;align=center;verticalAlign=middle;whiteSpace=wrap;rounded=0;fontStyle=1;fontColor=#0000FF;" vertex="1" parent="1">
          <mxGeometry x="272" y="450" width="60" height="30" as="geometry" />
        </mxCell>
        <mxCell id="bJGoiBvRY1GCGcLGC41Q-86" value="&lt;span&gt;&lt;font&gt;B&lt;/font&gt;&lt;/span&gt;" style="text;html=1;strokeColor=none;fillColor=none;align=center;verticalAlign=middle;whiteSpace=wrap;rounded=0;fontStyle=1;fontColor=#0000FF;" vertex="1" parent="1">
          <mxGeometry x="274" y="440" width="60" height="30" as="geometry" />
        </mxCell>
        <mxCell id="bJGoiBvRY1GCGcLGC41Q-87" value="&lt;span&gt;&lt;font&gt;B&lt;/font&gt;&lt;/span&gt;" style="text;html=1;strokeColor=none;fillColor=none;align=center;verticalAlign=middle;whiteSpace=wrap;rounded=0;fontStyle=1;fontColor=#0000FF;" vertex="1" parent="1">
          <mxGeometry x="292" y="451" width="60" height="29" as="geometry" />
        </mxCell>
        <mxCell id="bJGoiBvRY1GCGcLGC41Q-88" value="&lt;span&gt;&lt;font&gt;B&lt;/font&gt;&lt;/span&gt;" style="text;html=1;strokeColor=none;fillColor=none;align=center;verticalAlign=middle;whiteSpace=wrap;rounded=0;fontStyle=1;fontColor=#0000FF;" vertex="1" parent="1">
          <mxGeometry x="259" y="410" width="60" height="30" as="geometry" />
        </mxCell>
        <mxCell id="bJGoiBvRY1GCGcLGC41Q-89" value="&lt;span&gt;&lt;font&gt;B&lt;/font&gt;&lt;/span&gt;" style="text;html=1;strokeColor=none;fillColor=none;align=center;verticalAlign=middle;whiteSpace=wrap;rounded=0;fontStyle=1;fontColor=#0000FF;" vertex="1" parent="1">
          <mxGeometry x="259" y="430" width="60" height="30" as="geometry" />
        </mxCell>
        <mxCell id="bJGoiBvRY1GCGcLGC41Q-90" value="&lt;span&gt;&lt;font&gt;B&lt;/font&gt;&lt;/span&gt;" style="text;html=1;strokeColor=none;fillColor=none;align=center;verticalAlign=middle;whiteSpace=wrap;rounded=0;fontStyle=1;fontColor=#0000FF;" vertex="1" parent="1">
          <mxGeometry x="288" y="421" width="60" height="30" as="geometry" />
        </mxCell>
        <mxCell id="bJGoiBvRY1GCGcLGC41Q-91" value="&lt;span&gt;&lt;font&gt;B&lt;/font&gt;&lt;/span&gt;" style="text;html=1;strokeColor=none;fillColor=none;align=center;verticalAlign=middle;whiteSpace=wrap;rounded=0;fontStyle=1;fontColor=#0000FF;" vertex="1" parent="1">
          <mxGeometry x="231" y="465" width="60" height="30" as="geometry" />
        </mxCell>
        <mxCell id="bJGoiBvRY1GCGcLGC41Q-92" value="&lt;span&gt;&lt;font&gt;B&lt;/font&gt;&lt;/span&gt;" style="text;html=1;strokeColor=none;fillColor=none;align=center;verticalAlign=middle;whiteSpace=wrap;rounded=0;fontStyle=1;fontColor=#0000FF;" vertex="1" parent="1">
          <mxGeometry x="250" y="450" width="60" height="30" as="geometry" />
        </mxCell>
        <mxCell id="bJGoiBvRY1GCGcLGC41Q-93" value="&lt;span&gt;&lt;font&gt;B&lt;/font&gt;&lt;/span&gt;" style="text;html=1;strokeColor=none;fillColor=none;align=center;verticalAlign=middle;whiteSpace=wrap;rounded=0;fontStyle=1;fontColor=#0000FF;" vertex="1" parent="1">
          <mxGeometry x="271" y="465" width="60" height="30" as="geometry" />
        </mxCell>
        <mxCell id="bJGoiBvRY1GCGcLGC41Q-94" value="&lt;span&gt;&lt;font&gt;B&lt;/font&gt;&lt;/span&gt;" style="text;html=1;strokeColor=none;fillColor=none;align=center;verticalAlign=middle;whiteSpace=wrap;rounded=0;fontStyle=1;fontColor=#0000FF;" vertex="1" parent="1">
          <mxGeometry x="261" y="423" width="60" height="30" as="geometry" />
        </mxCell>
        <mxCell id="bJGoiBvRY1GCGcLGC41Q-95" value="&lt;span&gt;&lt;font&gt;B&lt;/font&gt;&lt;/span&gt;" style="text;html=1;strokeColor=none;fillColor=none;align=center;verticalAlign=middle;whiteSpace=wrap;rounded=0;fontStyle=1;fontColor=#0000FF;" vertex="1" parent="1">
          <mxGeometry x="283" y="444" width="60" height="30" as="geometry" />
        </mxCell>
        <mxCell id="bJGoiBvRY1GCGcLGC41Q-96" value="&lt;span&gt;&lt;font&gt;B&lt;/font&gt;&lt;/span&gt;" style="text;html=1;strokeColor=none;fillColor=none;align=center;verticalAlign=middle;whiteSpace=wrap;rounded=0;fontStyle=1;fontColor=#0000FF;" vertex="1" parent="1">
          <mxGeometry x="263" y="454" width="60" height="30" as="geometry" />
        </mxCell>
        <mxCell id="bJGoiBvRY1GCGcLGC41Q-97" value="&lt;span&gt;&lt;font&gt;B&lt;/font&gt;&lt;/span&gt;" style="text;html=1;strokeColor=none;fillColor=none;align=center;verticalAlign=middle;whiteSpace=wrap;rounded=0;fontStyle=1;fontColor=#0000FF;" vertex="1" parent="1">
          <mxGeometry x="263" y="444" width="60" height="30" as="geometry" />
        </mxCell>
        <mxCell id="bJGoiBvRY1GCGcLGC41Q-98" value="&lt;span&gt;&lt;font&gt;B&lt;/font&gt;&lt;/span&gt;" style="text;html=1;strokeColor=none;fillColor=none;align=center;verticalAlign=middle;whiteSpace=wrap;rounded=0;fontStyle=1;fontColor=#0000FF;" vertex="1" parent="1">
          <mxGeometry x="280" y="455" width="60" height="30" as="geometry" />
        </mxCell>
        <mxCell id="bJGoiBvRY1GCGcLGC41Q-99" value="&lt;span&gt;&lt;font&gt;B&lt;/font&gt;&lt;/span&gt;" style="text;html=1;strokeColor=none;fillColor=none;align=center;verticalAlign=middle;whiteSpace=wrap;rounded=0;fontStyle=1;fontColor=#0000FF;" vertex="1" parent="1">
          <mxGeometry x="263" y="403" width="60" height="30" as="geometry" />
        </mxCell>
        <mxCell id="bJGoiBvRY1GCGcLGC41Q-100" value="&lt;span&gt;&lt;font&gt;B&lt;/font&gt;&lt;/span&gt;" style="text;html=1;strokeColor=none;fillColor=none;align=center;verticalAlign=middle;whiteSpace=wrap;rounded=0;fontStyle=1;fontColor=#0000FF;" vertex="1" parent="1">
          <mxGeometry x="281" y="414" width="60" height="29" as="geometry" />
        </mxCell>
        <mxCell id="bJGoiBvRY1GCGcLGC41Q-101" value="&lt;span&gt;&lt;font&gt;B&lt;/font&gt;&lt;/span&gt;" style="text;html=1;strokeColor=none;fillColor=none;align=center;verticalAlign=middle;whiteSpace=wrap;rounded=0;fontStyle=1;fontColor=#0000FF;" vertex="1" parent="1">
          <mxGeometry x="272" y="407" width="60" height="30" as="geometry" />
        </mxCell>
        <mxCell id="bJGoiBvRY1GCGcLGC41Q-102" value="&lt;span&gt;&lt;font&gt;B&lt;/font&gt;&lt;/span&gt;" style="text;html=1;strokeColor=none;fillColor=none;align=center;verticalAlign=middle;whiteSpace=wrap;rounded=0;fontStyle=1;fontColor=#0000FF;" vertex="1" parent="1">
          <mxGeometry x="251" y="407" width="60" height="30" as="geometry" />
        </mxCell>
        <mxCell id="bJGoiBvRY1GCGcLGC41Q-103" value="&lt;span&gt;&lt;font&gt;B&lt;/font&gt;&lt;/span&gt;" style="text;html=1;strokeColor=none;fillColor=none;align=center;verticalAlign=middle;whiteSpace=wrap;rounded=0;fontStyle=1;fontColor=#0000FF;" vertex="1" parent="1">
          <mxGeometry x="250" y="437" width="60" height="30" as="geometry" />
        </mxCell>
        <mxCell id="bJGoiBvRY1GCGcLGC41Q-104" value="&lt;span&gt;&lt;font&gt;B&lt;/font&gt;&lt;/span&gt;" style="text;html=1;strokeColor=none;fillColor=none;align=center;verticalAlign=middle;whiteSpace=wrap;rounded=0;fontStyle=1;fontColor=#0000FF;" vertex="1" parent="1">
          <mxGeometry x="302" y="421" width="60" height="30" as="geometry" />
        </mxCell>
        <mxCell id="bJGoiBvRY1GCGcLGC41Q-105" value="&lt;span&gt;&lt;font&gt;B&lt;/font&gt;&lt;/span&gt;" style="text;html=1;strokeColor=none;fillColor=none;align=center;verticalAlign=middle;whiteSpace=wrap;rounded=0;fontStyle=1;fontColor=#0000FF;" vertex="1" parent="1">
          <mxGeometry x="315" y="441" width="60" height="29" as="geometry" />
        </mxCell>
        <mxCell id="bJGoiBvRY1GCGcLGC41Q-106" value="&lt;span&gt;&lt;font&gt;B&lt;/font&gt;&lt;/span&gt;" style="text;html=1;strokeColor=none;fillColor=none;align=center;verticalAlign=middle;whiteSpace=wrap;rounded=0;fontStyle=1;fontColor=#0000FF;" vertex="1" parent="1">
          <mxGeometry x="256" y="384" width="60" height="30" as="geometry" />
        </mxCell>
        <mxCell id="bJGoiBvRY1GCGcLGC41Q-107" value="&lt;span&gt;&lt;font&gt;B&lt;/font&gt;&lt;/span&gt;" style="text;html=1;strokeColor=none;fillColor=none;align=center;verticalAlign=middle;whiteSpace=wrap;rounded=0;fontStyle=1;fontColor=#0000FF;" vertex="1" parent="1">
          <mxGeometry x="292" y="440" width="60" height="30" as="geometry" />
        </mxCell>
        <mxCell id="bJGoiBvRY1GCGcLGC41Q-108" value="&lt;span&gt;&lt;font&gt;B&lt;/font&gt;&lt;/span&gt;" style="text;html=1;strokeColor=none;fillColor=none;align=center;verticalAlign=middle;whiteSpace=wrap;rounded=0;fontStyle=1;fontColor=#0000FF;" vertex="1" parent="1">
          <mxGeometry x="265" y="388" width="60" height="30" as="geometry" />
        </mxCell>
        <mxCell id="bJGoiBvRY1GCGcLGC41Q-109" value="&lt;span&gt;&lt;font&gt;B&lt;/font&gt;&lt;/span&gt;" style="text;html=1;strokeColor=none;fillColor=none;align=center;verticalAlign=middle;whiteSpace=wrap;rounded=0;fontStyle=1;fontColor=#0000FF;" vertex="1" parent="1">
          <mxGeometry x="220" y="435" width="60" height="30" as="geometry" />
        </mxCell>
        <mxCell id="bJGoiBvRY1GCGcLGC41Q-110" value="&lt;span&gt;&lt;font color=&quot;#ff3333&quot;&gt;R&lt;/font&gt;&lt;/span&gt;" style="text;html=1;strokeColor=none;fillColor=none;align=center;verticalAlign=middle;whiteSpace=wrap;rounded=0;fontStyle=1" vertex="1" parent="1">
          <mxGeometry x="325" y="360" width="60" height="32" as="geometry" />
        </mxCell>
        <mxCell id="bJGoiBvRY1GCGcLGC41Q-111" value="&lt;span&gt;&lt;font color=&quot;#ff3333&quot;&gt;R&lt;/font&gt;&lt;/span&gt;" style="text;html=1;strokeColor=none;fillColor=none;align=center;verticalAlign=middle;whiteSpace=wrap;rounded=0;fontStyle=1" vertex="1" parent="1">
          <mxGeometry x="311" y="392" width="38" height="33" as="geometry" />
        </mxCell>
        <mxCell id="bJGoiBvRY1GCGcLGC41Q-115" value="" style="rounded=0;whiteSpace=wrap;html=1;opacity=70;strokeColor=default;" vertex="1" parent="1">
          <mxGeometry x="240" y="330" width="160" height="160" as="geometry" />
        </mxCell>
        <mxCell id="bJGoiBvRY1GCGcLGC41Q-114" style="rounded=0;orthogonalLoop=1;jettySize=auto;html=1;exitX=0;exitY=0;exitDx=0;exitDy=0;endArrow=none;endFill=0;" edge="1" parent="1" source="bJGoiBvRY1GCGcLGC41Q-115">
          <mxGeometry relative="1" as="geometry">
            <mxPoint x="400" y="490" as="targetPoint" />
            <mxPoint x="261" y="350" as="sourcePoint" />
          </mxGeometry>
        </mxCell>
        <mxCell id="bJGoiBvRY1GCGcLGC41Q-117" value="" style="shape=flexArrow;endArrow=classic;html=1;rounded=0;width=4.166666666666667;endSize=6.897222222222221;endWidth=14.12037037037037;fillColor=#f8cecc;strokeColor=#b85450;" edge="1" parent="1">
          <mxGeometry width="50" height="50" relative="1" as="geometry">
            <mxPoint x="321" y="409" as="sourcePoint" />
            <mxPoint x="341" y="389" as="targetPoint" />
          </mxGeometry>
        </mxCell>
        <mxCell id="bJGoiBvRY1GCGcLGC41Q-118" value="" style="shape=flexArrow;endArrow=classic;html=1;rounded=0;width=4.166666666666667;endSize=6.897222222222221;endWidth=14.12037037037037;fillColor=#dae8fc;strokeColor=#6c8ebf;opacity=90;" edge="1" parent="1">
          <mxGeometry width="50" height="50" relative="1" as="geometry">
            <mxPoint x="319" y="411" as="sourcePoint" />
            <mxPoint x="299" y="431" as="targetPoint" />
          </mxGeometry>
        </mxCell>
        <mxCell id="dtlSQb_wpmyba999vmfU-13" value="" style="verticalLabelPosition=bottom;verticalAlign=top;html=1;shape=mxgraph.basic.obtuse_triangle;dx=0;fillColor=#dae8fc;strokeColor=#6c8ebf;" vertex="1" parent="1">
          <mxGeometry x="460" y="330" width="159" height="160" as="geometry" />
        </mxCell>
        <mxCell id="dtlSQb_wpmyba999vmfU-14" value="" style="verticalLabelPosition=bottom;verticalAlign=top;html=1;shape=mxgraph.basic.obtuse_triangle;dx=0;fillColor=#f8cecc;strokeColor=#b85450;rotation=-180;" vertex="1" parent="1">
          <mxGeometry x="460" y="330" width="159" height="160" as="geometry" />
        </mxCell>
      </root>
    </mxGraphModel>
  </diagram>
</mxfile>
